HIERARCHY
ROOT Hips
{
  OFFSET 35.9993 94.9548 30.3989
  CHANNELS 6 Xposition Yposition Zposition Zrotation Xrotation Yrotation
  JOINT RightUpLeg
  {
    OFFSET -8.9458 -8.66707 0.101652
    CHANNELS 3 Zrotation Xrotation Yrotation
    JOINT RightLeg
    {
      OFFSET 0 -44.4227 1.3727
      CHANNELS 3 Zrotation Xrotation Yrotation
      JOINT RightFoot
      {
        OFFSET 0.253549 -42.0924 -1.46059
        CHANNELS 3 Zrotation Xrotation Yrotation
        JOINT RightToes
        {
          OFFSET 0.04 -4.41509 8.4991
          CHANNELS 3 Zrotation Xrotation Yrotation
          End Site
          {
            OFFSET -0.08 -0.137448 9.77979
          }
        }
      }
    }
  }
  JOINT Spine
  {
    OFFSET 0 11.8905 0
    CHANNELS 3 Zrotation Xrotation Yrotation
    JOINT Spine1
    {
      OFFSET 0 25.6574 0.127663
      CHANNELS 3 Zrotation Xrotation Yrotation
      JOINT HEad
      {
        OFFSET 0 8.73416 0.011341
        CHANNELS 3 Zrotation Xrotation Yrotation
        End Site
        {
          OFFSET -0.29 12.7742 2.51395
        }
      }
      JOINT LeftShoulder1
      {
        OFFSET 8.99 -0.362252 -0.22
        CHANNELS 3 Zrotation Xrotation Yrotation
        JOINT LeftArm
        {
          OFFSET 10.2827 -0.00338 0.322123
          CHANNELS 3 Zrotation Xrotation Yrotation
          JOINT LeftForeArm
          {
            OFFSET 32.7669 0.099144 -1.42434
            CHANNELS 3 Zrotation Xrotation Yrotation
            JOINT LeftHand
            {
              OFFSET 27.5643 0.085362 1.02216
              CHANNELS 3 Zrotation Xrotation Yrotation
              End Site
              {
                OFFSET 16.7443 -0.6 1.50291
              }
            }
          }
        }
      }
      JOINT RightShoulder
      {
        OFFSET -8.99 -0.362252 -0.22
        CHANNELS 3 Zrotation Xrotation Yrotation
        JOINT RightArm
        {
          OFFSET -10.2827 -0.00338 0.322123
          CHANNELS 3 Zrotation Xrotation Yrotation
          JOINT RightForeArm
          {
            OFFSET -32.8971 0.099144 -1.42434
            CHANNELS 3 Zrotation Xrotation Yrotation
            JOINT RightHand
            {
              OFFSET -27.4921 0.085362 1.02216
              CHANNELS 3 Zrotation Xrotation Yrotation
              End Site
              {
                OFFSET -16.6312 -0.6 1.50291
              }
            }
          }
        }
      }
    }
  }
  JOINT LeftUpLeg
  {
    OFFSET 8.9458 -8.66707 0.101652
    CHANNELS 3 Zrotation Xrotation Yrotation
    JOINT LeftLeg
    {
      OFFSET 0 -44.4227 1.3727
      CHANNELS 3 Zrotation Xrotation Yrotation
      JOINT LeftFoot
      {
        OFFSET -0.253549 -42.0924 -1.46059
        CHANNELS 3 Zrotation Xrotation Yrotation
        JOINT LeftToes
        {
          OFFSET -0.04 -4.41509 8.4991
          CHANNELS 3 Zrotation Xrotation Yrotation
          End Site
          {
            OFFSET 0.08 -0.047448 9.77979
          }
        }
      }
    }
  }
}
MOTION
Frames:	11
Frame Time:	0.0166667
35.9993 94.9548 30.3989 3.23873 4.20645 176.341 -16.3471 -19.8703 4.25667 6.92139 33.0941 -5.51065 7.10389 2.06021 -0.711171 -5.80106 -17.8717 -1.47132 1.92329 9.02178 -4.22129 -2.56048 17.6263 -7.13744 12.317 -6.02974 -7.84722 2.38542e-015 3.18055e-015 -3.18055e-015 -82.2115 4.50487 -39.5455 -14.9551 39.9371 -107.015 6.54677 9.62745 -1.04006 21.8515 -1.478 -8.56655 70.3505 -18.9327 38.1139 -13.5099 32.9137 138.026 -15.6621 10.6671 -10.2624 18.3956 -2.78857 -6.97494 -19.998 35.0892 12.6169 -8.58381 22.0794 2.07465 62.1027 -62.2302 41.9574 
36.1124 94.9474 30.2911 3.20195 4.22594 175.997 -16.6038 -20.4633 4.317 7.6877 33.9819 -5.24903 6.89056 1.67027 -0.672244 -5.49421 -16.3125 -1.81674 1.84261 8.97325 -4.10118 -2.4484 17.5377 -6.92903 11.5991 -5.09109 -7.72126 -7.95139e-016 3.18055e-015 -0 -82.1988 4.17093 -40.0515 -14.8341 39.5462 -106.812 6.54677 9.62745 -1.04006 21.5348 -1.45365 -8.54724 70.2819 -19.6176 38.2055 -13.3922 32.9392 138.214 -14.1852 10.7953 -12.022 18.5946 -2.89502 -6.83167 -20.4304 35.4463 12.4794 -8.63567 22.3985 2.11044 62.2678 -62.0522 42.3172 
36.3472 94.9085 30.2239 3.66057 4.17292 176.038 -16.3373 -21.3299 5.29685 9.23379 35.1635 -5.93867 6.5887 2.27376 -0.678165 -5.92869 -15.6816 -3.33547 1.91555 8.87166 -3.91741 -2.42144 17.3177 -6.58419 11.7141 -3.77004 -8.20564 -7.95139e-016 3.18055e-015 -0 -81.4077 4.03162 -40.7913 -15.0679 39.3751 -106.237 6.54677 9.62745 -1.04006 21.8 -1.61241 -9.14257 69.6507 -18.9943 38.03 -13.9537 31.2542 138.894 -13.0433 10.8467 -13.2224 18.9798 -3.25915 -5.85013 -19.0051 36.4834 11.0704 -9.07093 22.8764 2.26005 63.0603 -62.7361 42.5066 
36.5198 94.8213 30.116 3.72443 4.38962 176.211 -16.3286 -22.1897 5.81094 9.44214 36.8586 -6.03124 8.73333 3.39775 -0.942582 -5.92822 -16.6879 -2.59993 1.99768 8.87358 -4.07341 -2.19808 17.3208 -6.90827 11.6856 -2.73764 -8.01377 -7.95139e-016 0 -0 -81.4458 3.29282 -42.1995 -14.7775 38.8634 -106.186 6.54677 9.62745 -1.04006 20.9 -1.19269 -7.58614 68.9687 -19.1699 37.8676 -16.0804 27.8977 140.749 -11.4287 11.065 -16.9195 19.0793 -3.20376 -7.00806 -19.5083 36.6478 11.2444 -8.97813 21.9401 2.16696 61.5933 -62.1037 41.5202 
36.7864 94.6177 30.11 3.61054 4.48896 176.024 -16.5243 -23.6012 6.86672 9.9432 38.5748 -5.90734 11.1679 6.69324 -1.47668 -6.85473 -21.6641 -1.40159 1.75583 8.87355 -3.79466 -2.71231 17.3009 -6.33251 12.2397 -1.93202 -8.42368 8.82781e-032 3.18055e-015 -1.59028e-015 -80.6893 3.03988 -43.9142 -14.7252 38.827 -106.2 6.54677 9.62745 -1.04006 21.2839 -1.39914 -8.38108 69.2913 -20.0321 38.6286 -16.5496 27.3192 142.111 -9.46142 11.0327 -19.3183 18.7843 -3.0326 -7.08443 -18.9156 36.882 11.0738 -9.31046 21.9813 2.25606 62.3672 -62.1137 42.3653 
37.0866 94.4114 30.0542 3.75715 4.74223 175.688 -16.493 -25.1595 8.07937 10.7219 40.8021 -6.06294 14.5291 8.61778 -2.13166 -6.4792 -23.2903 0.400087 1.59625 8.81225 -3.76953 -2.94964 17.1607 -6.27924 12.954 -0.850195 -7.7153 2.38542e-015 -9.54166e-015 4.77083e-015 -80.9071 1.74732 -45.2046 -14.8367 39.2665 -106.374 6.54677 9.62745 -1.04006 21.5472 -1.36268 -8.15929 70.3007 -21.5166 39.0615 -16.8164 28.1963 143.634 -7.50337 10.8632 -20.7491 19.1552 -2.43935 -7.61693 -19.921 36.4687 12.3564 -6.33218 22.3569 1.50415 63.3872 -60.7219 44.8814 
37.5844 94.326 29.9398 3.66372 5.01781 175.586 -16.0153 -26.4489 9.20384 10.2006 42.4803 -4.32966 17.2549 13.7215 -3.25824 -9.39718 -30.4523 -1.50407 1.42917 8.93892 -3.7566 -3.25229 17.4021 -6.27309 13.391 -0.686778 -7.63082 7.95139e-016 6.36111e-015 -0 -81.109 0.480942 -47.3515 -14.8987 39.6941 -106.549 6.54677 9.62745 -1.04006 21.2412 -1.22793 -7.65918 70.6329 -21.4653 40.044 -17.5184 26.7502 144.124 -7.16443 10.8722 -21.7637 19.0213 -1.79053 -7.24544 -18.8881 36.2176 13.3318 -6.16076 22.8191 1.48154 64.1743 -62.0807 44.3742 
38.0682 94.1048 29.8482 3.61451 5.3811 175.939 -15.9643 -27.5553 9.54511 10.5848 44.1736 -2.51238 15.5793 19.1451 -3.64449 -12.6852 -37.7742 -3.58331 1.65165 9.06083 -4.09858 -3.35138 17.5951 -6.87539 13.485 -0.453686 -6.8581 3.18055e-015 0 3.18055e-015 -81.494 -0.824255 -49.0385 -14.9645 40.2893 -107.354 6.54677 9.62745 -1.04006 20.8806 -0.986905 -6.69624 71.3019 -22.38 40.6816 -17.3839 27.0376 144.5 -7.00831 10.8809 -22.3484 19.371 -1.17324 -8.1914 -19.4309 35.4306 13.9326 -5.21254 23.6407 1.26241 66.0335 -61.7529 46.7039 
38.6959 94.0985 29.669 3.61808 5.6674 176.503 -15.5028 -28.3589 9.86976 9.2017 46.2576 0.327103 17.8219 16.5095 -3.78191 -9.81349 -33.4758 -0.701896 1.72335 9.20175 -4.3973 -3.6685 17.8471 -7.40966 14.2383 -0.118101 -6.43706 -8.82781e-032 3.18055e-015 1.59028e-015 -81.657 -2.45923 -50.7174 -15.3119 41.0555 -107.546 6.54677 9.62745 -1.04006 21.0414 -0.726725 -5.54054 71.7084 -23.5257 41.1721 -17.9148 26.4185 144.852 -6.76551 10.8577 -22.6257 19.5174 -0.447734 -8.7852 -18.6535 34.5146 13.6764 -4.13615 24.2792 0.988306 66.9304 -61.449 47.9621 
39.4908 94.0297 29.393 3.35773 5.65224 176.979 -15.3572 -28.9256 10.4954 7.95355 46.9294 2.40384 18.8826 15.1959 -3.80115 -9.95812 -33.7945 -0.804722 1.38443 9.09819 -4.4439 -3.85934 17.6762 -7.54623 13.9932 0.194301 -6.48888 1.59028e-015 -3.18055e-015 1.59028e-015 -82.0714 -3.24226 -51.8942 -15.6229 41.6746 -107.889 6.54677 9.62745 -1.04006 21.3662 -0.578814 -4.86137 71.2947 -24.8816 41.4891 -18.596 25.718 145.431 -5.27752 10.6838 -24.1735 19.4273 -0.0304364 -9.05915 -17.5062 34.0367 12.1263 -6.44075 23.0834 1.56933 64.8679 -61.6308 45.5745 
40.3607 94.0857 29.0985 2.99664 5.75712 178.141 -16.1462 -28.5592 10.871 8.37059 45.6683 0.930642 16.7848 17.0295 -3.63271 -9.95551 -37.039 0.770903 1.22065 9.03835 -4.71913 -3.98098 17.5865 -8.098 13.9445 0.229477 -6.46493 1.59028e-015 -3.18055e-015 -1.59028e-015 -82.0562 -3.78057 -52.7976 -15.3787 41.8097 -108.366 6.54677 9.62745 -1.04006 20.7938 -0.241908 -3.46005 72.7934 -29.1008 41.5866 -18.6758 27.657 147.228 -3.48722 10.4274 -26.2982 19.5537 0.239827 -10.2673 -17.4081 33.3014 11.4706 -5.01779 20.7759 1.10034 59.5732 -59.7771 41.608 
